<svg xmlns="http://www.w3.org/2000/svg" height="58" fill="#8A8A8A" viewBox="0 96 960 960" width="58"><path d="M242 802q56-37 113.045-57.5 57.046-20.5 125-20.5Q548 724 604.5 744.5T719 802q42-47 66-103t24-123q0-137-96-233t-233-96q-137 0-233 96t-96 233q0 67 24 123t67 103Zm237.854-203Q427 599 391 562.854q-36-36.145-36-89Q355 421 391.146 385q36.145-36 89-36Q533 349 569 385.146q36 36.145 36 89Q605 527 568.854 563q-36.145 36-89 36Zm-.42 341q-73.985 0-140.776-28.474-66.79-28.473-116.224-78.5Q173 783 144.5 717.659 116 652.319 116 575.5q0-75.819 28.711-141.785 28.71-65.967 78.464-115.578 49.754-49.611 115.13-77.874Q403.681 212 480.5 212q75.819 0 141.666 28.74t115.132 78.08q49.286 49.34 77.994 115.339T844 575.734q0 76.734-28.263 142.035-28.263 65.302-77.943 115.056-49.68 49.754-115.947 78.464Q555.58 940 479.434 940Z"/></svg>