<?xml version="1.0" encoding="utf-8"?>
<!-- Svg Vector Icons : http://www.onlinewebfonts.com/icon -->
<!DOCTYPE svg PUBLIC "-//W3C//DTD SVG 1.1//EN" "http://www.w3.org/Graphics/SVG/1.1/DTD/svg11.dtd">
<svg version="1.1" xmlns="http://www.w3.org/2000/svg" xmlns:xlink="http://www.w3.org/1999/xlink" x="0px" y="0px" viewBox="0 0 256 256" enable-background="new 0 0 256 256" xml:space="preserve">
<metadata> Svg Vector Icons : http://www.onlinewebfonts.com/icon </metadata>
<g><g><g><path fill="white" d="M121.8,10.6c-13.3,2.9-23.3,15.2-23.3,28.8c0,8.8,4.6,17.9,11.8,23.3l3,2.2v16.7v16.7H96.9c-18,0-23.3,0.4-31,2.3c-30.8,7.8-52.8,33.5-55.6,65.3c-3.6,39.5,25.8,75.2,65.5,79.5c6.5,0.7,97.9,0.7,104.4,0c26.7-2.9,50.2-20.5,60.2-45.2c17-41.9-6.6-88.6-50.3-99.6c-7.6-1.9-12.9-2.3-31-2.3h-16.4V81.7V64.9l3-2.2c7.2-5.4,11.8-14.5,11.8-23.3c0-1.3-0.3-4-0.7-5.9C153.5,17.5,137.8,7.2,121.8,10.6z M179.8,128.6c9.2,1.6,16.9,5.6,23.7,12.4c6.8,6.8,10.8,14.5,12.4,23.7c1.3,7.6,0.6,15.4-2.1,22.9c-4.2,11.6-14.6,22-26.2,26.2c-7.8,2.8-7.1,2.8-59.6,2.8c-52.5,0-51.9,0-59.7-2.8c-11.6-4.2-22-14.6-26.2-26.2c-9.3-25.6,6-53.1,32.8-58.8c3.6-0.7,7.5-0.8,52.4-0.8C168.4,127.9,176.5,128,179.8,128.6z"/><path fill="white" d="M80.2,157.9c-2.2,0.6-6.1,2.9-7.4,4.3c-2.6,3-3.6,5.9-3.6,9.8c0,3.3,0.1,4.1,1.5,6.8c2.5,5.2,7.1,7.9,13,8c2.8,0,4-0.2,6-1.2c5.4-2.5,8.5-7.4,8.5-13.3c0-5.9-2.8-10.5-7.8-13C87.3,157.7,83,157.1,80.2,157.9z"/><path fill="white" d="M168.8,157.9c-2.2,0.6-6.1,2.9-7.4,4.3c-2.6,3-3.6,5.9-3.6,9.8c0,3.3,0.1,4.1,1.5,6.8c2.5,5.2,7.1,7.9,13,8c2.8,0,4-0.2,6-1.2c5.4-2.5,8.5-7.4,8.5-13.3c0-5.9-2.8-10.5-7.8-13C175.9,157.7,171.6,157.1,168.8,157.9z"/></g></g></g>
</svg>
